<?xml version="1.0" encoding="UTF-8" standalone="no"?>
<!DOCTYPE svg PUBLIC "-//W3C//DTD SVG 1.1//EN" "http://www.w3.org/Graphics/SVG/1.1/DTD/svg11.dtd">
<svg width="100%" height="100%" viewBox="0 0 12095 12095" version="1.1" xmlns="http://www.w3.org/2000/svg" xmlns:xlink="http://www.w3.org/1999/xlink" xml:space="preserve" xmlns:serif="http://www.serif.com/" style="fill-rule:evenodd;clip-rule:evenodd;stroke-linecap:round;stroke-linejoin:round;">
    <g id="book-svgrepo-com.svg" transform="matrix(11.1114,0,0,11.1114,6047.24,6017.72)">
        <g transform="matrix(1,0,0,1,-400,-400)">
            <path d="M233.333,733.333C197.971,733.333 164.059,719.283 139.054,694.28C114.05,669.273 100,635.363 100,600C100,564.637 114.05,530.723 139.054,505.717C164.059,480.713 197.971,466.667 233.333,466.667" style="fill:none;fill-rule:nonzero;stroke:black;stroke-width:50px;"/>
            <path d="M233.333,66.667C197.971,66.667 164.059,80.712 139.054,105.717C114.05,130.722 100,164.638 100,200L100,600" style="fill:none;fill-rule:nonzero;stroke:black;stroke-width:50px;"/>
            <path d="M233.333,66.667L633.333,66.667C651.013,66.667 667.973,73.691 680.473,86.194C692.977,98.696 700,115.652 700,133.333L700,533.333" style="fill:none;fill-rule:nonzero;stroke:black;stroke-width:50px;"/>
            <path d="M233.333,466.667L633.333,466.667C651.013,466.667 667.973,473.69 680.473,486.193C692.977,498.697 700,515.653 700,533.333L700,666.667C700,684.347 692.977,701.303 680.473,713.807C667.973,726.31 651.013,733.333 633.333,733.333L233.333,733.333" style="fill:none;fill-rule:nonzero;stroke:black;stroke-width:50px;"/>
        </g>
    </g>
    <g id="markdown-svgrepo-com.svg" transform="matrix(4.49625,0,0,4.49625,6047.24,4716.07)">
        <g transform="matrix(1,0,0,1,-400,-400)">
            <path d="M742.3,646.167L57.7,646.167C26.065,646.167 0.033,620.135 0.033,588.5L0.033,211.5C0.033,179.865 26.065,153.833 57.7,153.833L742.3,153.833C773.935,153.833 799.967,179.865 799.967,211.5L799.967,588.433C799.967,588.444 799.967,588.456 799.967,588.467C799.967,620.102 773.935,646.133 742.3,646.133L742.3,646.133L742.3,646.167ZM192.3,530.767L192.3,380.767L269.233,476.933L346.133,380.767L346.133,530.767L423.067,530.767L423.067,269.267L346.133,269.267L269.233,365.433L192.3,269.267L115.367,269.267L115.367,530.833L192.3,530.767ZM707.7,400L630.767,400L630.767,269.233L553.867,269.233L553.867,400L476.933,400L592.3,534.633L707.7,400Z" style="fill-rule:nonzero;"/>
        </g>
    </g>
</svg>
